# xmcd
#
# Track frame offsets:
#	150
#	13507
#	29537
#	46567
#	62232
#	82880
#	97427
#	113562
#	128520
#	144735
#	158497
#	169922
#	185760
#	200652
#
# Disc length: 2843 seconds
#
# Revision: 1
# Processed by: cddbd v1.5PL3 Copyright (c) Steve Scherf et al.
# Submitted via: CDex 1.50Beta5
#
DISCID=ba0b190e
DTITLE=Various Artist - BEST想い出のヒット・パレード
DYEAR=1994
DGENRE=Pop
TTITLE0=小柳ルミ子/わたしの城下町
TTITLE1=キャンディーズ/年下の男の子
TTITLE2=太田裕美/木綿のハンカチーフ
TTITLE3=沢田研二/勝手にしやがれ
TTITLE4=布施明/シクラメンのかほり
TTITLE5=三木聖子/まちぶせ
TTITLE6=小柳ルミ子/瀬戸の花嫁
TTITLE7=天地真理/ひとりじゃないの
TTITLE8=天地真理/水色の恋
TTITLE9=アグネス・チャン/ひなげしの花
TTITLE10=千葉紘子/折鶴
TTITLE11=奥村チヨ/終着駅
TTITLE12=欧陽菲菲/雨の御堂筋
TTITLE13=辺見マリ/経験
EXTD=
EXTT0=
EXTT1=
EXTT2=
EXTT3=
EXTT4=
EXTT5=
EXTT6=
EXTT7=
EXTT8=
EXTT9=
EXTT10=
EXTT11=
EXTT12=
EXTT13=
PLAYORDER=
